<svg xmlns="http://www.w3.org/2000/svg" width="900" height="320" font-family="Segoe UI, sans-serif">
<text x="60" y="30" font-size="17" font-weight="600" fill="#1a1d27">signed v1.3.87 startup: before vs after (seconds, lower is better)</text>
<line x1="60" y1="230" x2="870" y2="230" stroke="#e2e6ef"/>
<text x="52" y="234" font-size="11" fill="#8892a4" text-anchor="end">0s</text>
<line x1="60" y1="143" x2="870" y2="143" stroke="#e2e6ef"/>
<text x="52" y="147" font-size="11" fill="#8892a4" text-anchor="end">48s</text>
<line x1="60" y1="56" x2="870" y2="56" stroke="#e2e6ef"/>
<text x="52" y="60" font-size="11" fill="#8892a4" text-anchor="end">96s</text>
<rect x="134.9" y="56.0" width="121.5" height="174.0" fill="#d64545" rx="2"/>
<text x="195.7" y="52.0" font-size="11" fill="#1a1d27" text-anchor="middle">96.0s</text>
<rect x="256.4" y="189.2" width="121.5" height="40.8" fill="#2e9e5b" rx="2"/>
<text x="317.2" y="185.2" font-size="11" fill="#1a1d27" text-anchor="middle">22.5s</text>
<text x="262.5" y="252" font-size="11" fill="#8892a4" text-anchor="middle">cold backend-ready (54-138s -> 22.5s)</text>
<rect x="539.9" y="212.8" width="121.5" height="17.2" fill="#d64545" rx="2"/>
<text x="600.7" y="208.8" font-size="11" fill="#1a1d27" text-anchor="middle">9.5s</text>
<rect x="661.4" y="220.9" width="121.5" height="9.1" fill="#2e9e5b" rx="2"/>
<text x="722.2" y="216.9" font-size="11" fill="#1a1d27" text-anchor="middle">5.0s</text>
<text x="667.5" y="252" font-size="11" fill="#8892a4" text-anchor="middle">warm backend-ready (9-10s -> 5.0s)</text>
<rect x="700" y="56" width="12" height="12" fill="#d64545"/><text x="716" y="67" font-size="12" fill="#1a1d27">before (1.2.x)</text>
<rect x="805" y="56" width="12" height="12" fill="#2e9e5b"/><text x="821" y="67" font-size="12" fill="#1a1d27">v1.3.87</text>
</svg>